<svg width="176" height="161" viewBox="0 0 176 161" fill="none" xmlns="http://www.w3.org/2000/svg">
<g clip-path="url(#clip0_3_4)">
<path d="M155.082 91.3777L158.93 86.8278C158.58 83.8116 158.085 80.8211 157.45 77.8707L155.256 79.1826L157.227 76.853C156.41 73.214 155.674 70.8652 155.674 70.8652C155.674 70.8652 147.918 80.1983 143.909 91.1429L146.393 98.8582L142.994 93.8984C142.607 95.1934 142.288 96.5159 142.041 97.8581C139.588 111.4 141.343 123.325 145.961 124.493C150.579 125.66 156.31 115.629 158.763 102.086C159.524 97.888 159.515 93.2925 159.142 88.9491L155.082 91.3777Z" fill="#E6E6E6"/>
<path d="M166.519 100.828L171.804 99.2838C172.824 96.4876 173.709 93.6257 174.455 90.7117L172.004 90.4951L174.71 89.7044C175.602 86.0904 176 83.6303 176 83.6303C176 83.6303 165.277 86.8828 157.057 93.8034L155.808 101.925L155.069 95.6037C154.17 96.4756 153.319 97.4134 152.521 98.4115C144.496 108.506 140.782 119.786 144.224 123.606C147.666 127.425 156.961 122.338 164.986 112.244C167.473 109.114 169.477 105.175 171.058 101.229L166.519 100.828Z" fill="#E6E6E6"/>
<path d="M116.077 44.7294L117.375 32.6889C113.905 28.6655 110.245 24.8767 106.413 21.3404L104.421 26.2903L105.086 20.1255C100.311 15.8084 96.918 13.3067 96.918 13.3067C96.918 13.3067 94.4611 37.8166 99.1719 59.6195L110.418 67.7464L100.499 64.9797C101.186 67.4412 102.004 69.8491 102.946 72.1894C112.518 95.7467 126.789 111.15 134.822 106.594C142.854 102.038 141.606 79.2473 132.035 55.6899C129.068 48.3869 124.565 41.5395 119.764 35.5658L116.077 44.7294Z" fill="#E6E6E6"/>
<path d="M142.381 43.2327L148.76 33.7184C147.549 28.1547 146.074 22.6761 144.341 17.3086L140.47 20.3295L143.736 15.4582C141.537 8.84643 139.727 4.63245 139.727 4.63245C139.727 4.63245 126.901 24.1136 121.395 45.6549L127.467 59.4802L120.187 51.0543C119.698 53.5809 119.344 56.1413 119.127 58.7204C117.015 84.7323 122.493 106.634 131.363 107.64C140.232 108.645 149.135 88.3734 151.247 62.3615C151.902 54.2976 151.043 45.6859 149.547 37.6403L142.381 43.2327Z" fill="#E6E6E6"/>
<path d="M24.7852 46.499L24.1399 33.8653C19.924 30.5381 15.5525 27.4945 11.0465 24.7491L9.81788 30.2768L9.48752 23.8084C3.88712 20.4789 0 18.693 0 18.693C0 18.693 1.50436 44.3676 9.90827 65.627L22.7639 71.3775L12.1479 70.8147C13.2555 73.1793 14.4879 75.4592 15.8378 77.641C29.5097 99.5845 46.6586 112.098 54.1409 105.589C61.6232 99.0815 56.6055 76.0169 42.9336 54.0734C38.6951 47.2707 32.9583 41.2865 27.0596 36.2657L24.7852 46.499Z" fill="#E6E6E6"/>
<path d="M51.4899 38.9404L56.4646 27.7313C54.3111 22.3082 51.9005 17.033 49.2442 11.9308L45.7742 15.9124L48.3212 10.1734C44.9836 3.9028 42.4374 0 42.4374 0C42.4374 0 32.4929 22.8974 30.3864 46.229L38.8757 59.003L30.0341 52.0377C29.9478 54.7384 30.0053 57.4428 30.2064 60.1349C32.3103 87.2695 41.5162 108.455 50.7686 107.453C60.0209 106.452 65.8159 83.6429 63.7121 56.5083C63.0599 48.0963 60.7668 39.4698 57.9138 31.5693L51.4899 38.9404Z" fill="#E6E6E6"/>
<path d="M79.3205 152.363C82.9435 152.363 85.8806 151.372 85.8806 150.149C85.8806 148.925 82.9435 147.934 79.3205 147.934C75.6974 147.934 72.7603 148.925 72.7603 150.149C72.7603 151.372 75.6974 152.363 79.3205 152.363Z" fill="#E6E6E6"/>
<path d="M150.732 161C154.356 161 157.293 160.008 157.293 158.785C157.293 157.562 154.356 156.571 150.732 156.571C147.109 156.571 144.172 157.562 144.172 158.785C144.172 160.008 147.109 161 150.732 161Z" fill="#E6E6E6"/>
<path d="M164.415 142.84C168.038 142.84 170.975 141.849 170.975 140.626C170.975 139.403 168.038 138.411 164.415 138.411C160.792 138.411 157.855 139.403 157.855 140.626C157.855 141.849 160.792 142.84 164.415 142.84Z" fill="#E6E6E6"/>
<path d="M137.518 136.418C140.262 136.418 142.485 135.667 142.485 134.741C142.485 133.815 140.262 133.065 137.518 133.065C134.775 133.065 132.551 133.815 132.551 134.741C132.551 135.667 134.775 136.418 137.518 136.418Z" fill="#E6E6E6"/>
<path d="M29.9318 134.836C31.7433 134.836 33.2119 134.298 33.2119 133.634C33.2119 132.97 31.7433 132.432 29.9318 132.432C28.1203 132.432 26.6517 132.97 26.6517 133.634C26.6517 134.298 28.1203 134.836 29.9318 134.836Z" fill="#E6E6E6"/>
<path d="M16.999 148.345C18.8105 148.345 20.279 147.807 20.279 147.143C20.279 146.479 18.8105 145.941 16.999 145.941C15.1874 145.941 13.7189 146.479 13.7189 147.143C13.7189 147.807 15.1874 148.345 16.999 148.345Z" fill="#E6E6E6"/>
<path d="M16.999 127.085C18.8105 127.085 20.279 126.547 20.279 125.883C20.279 125.219 18.8105 124.681 16.999 124.681C15.1874 124.681 13.7189 125.219 13.7189 125.883C13.7189 126.547 15.1874 127.085 16.999 127.085Z" fill="#E6E6E6"/>
<path d="M157.456 129.764L125.675 128.436L108.915 130.325L80.2805 133.551L69.5049 134.765L44.5501 144.598C44.4499 144.637 44.3423 144.642 44.2398 144.612C44.1373 144.582 44.044 144.519 43.9708 144.429C43.8976 144.339 43.8475 144.226 43.8263 144.104C43.8051 143.982 43.8137 143.855 43.851 143.738L43.8528 143.736L48.1807 130.212L47.7252 129.815L35.8157 119.475L35.752 119.42L20.3094 116.639C20.092 116.599 19.8866 116.495 19.7128 116.336C19.5389 116.177 19.4022 115.968 19.3155 115.729C19.2289 115.49 19.1952 115.229 19.2175 114.97C19.2399 114.712 19.3177 114.464 19.4434 114.251L42.9625 74.3755L55.3219 53.4255L56.662 51.1512L108.075 50.3118L158.271 127.9C158.384 128.074 158.453 128.284 158.469 128.503C158.486 128.722 158.449 128.942 158.364 129.137C158.278 129.333 158.148 129.495 157.987 129.606C157.826 129.717 157.642 129.772 157.456 129.764Z" fill="#6C63FF"/>
<path opacity="0.2" d="M68.7055 54.3872L47.7248 129.815L35.8166 119.476L42.963 74.376L55.2864 53.3756L55.3214 53.4245L68.7055 54.3872Z" fill="black"/>
<path d="M49.9775 83.2825C47.5969 90.0445 46.7541 95.6924 43.9303 94.6725C40.0643 93.2762 44.1234 88.3373 46.5041 81.5754C48.8847 74.8135 50.5668 69.6265 52.5513 70.1854C56.2511 71.2274 52.3581 76.5206 49.9775 83.2825Z" fill="#3F3D56"/>
<path d="M55.3713 69.7475C55.3707 69.3 55.2955 68.857 55.15 68.4438C55.0045 68.0306 54.7915 67.6554 54.5233 67.3394C54.255 67.0235 53.9367 66.7731 53.5866 66.6025C53.2364 66.4319 52.8613 66.3445 52.4825 66.3452C52.4174 66.3453 52.3531 66.3489 52.2891 66.3541L49.5674 65.9573C49.2551 65.8258 48.9259 65.759 48.5943 65.76C48.5028 65.7601 48.4124 65.7659 48.323 65.776L48.2181 65.7607L48.2153 65.7909C47.5766 65.8922 46.985 66.2433 46.5348 66.7883C46.0847 67.3333 45.8021 68.0406 45.7319 68.7976C45.6618 69.5545 45.8082 70.3174 46.1479 70.9645C46.4875 71.6116 47.0008 72.1057 47.6059 72.3679L47.6002 72.4292L47.868 72.4646C48.1081 72.5388 48.3554 72.576 48.6036 72.5754C48.6311 72.5754 48.6583 72.5738 48.6857 72.5728L51.468 72.941C51.7951 73.0872 52.142 73.1616 52.4918 73.1607C52.6222 73.1602 52.7524 73.1493 52.8815 73.1281L53.1188 73.1595L53.1202 73.0774C53.7599 72.9072 54.3314 72.4847 54.7406 71.8794C55.1498 71.2741 55.3722 70.5222 55.3713 69.7475Z" fill="#6C63FF"/>
<path opacity="0.2" d="M55.3713 69.7475C55.3707 69.3 55.2955 68.857 55.15 68.4438C55.0045 68.0306 54.7915 67.6554 54.5233 67.3394C54.255 67.0235 53.9367 66.7731 53.5866 66.6025C53.2364 66.4319 52.8613 66.3445 52.4825 66.3452C52.4174 66.3453 52.3531 66.3489 52.2891 66.3541L49.5674 65.9573C49.2551 65.8258 48.9259 65.759 48.5943 65.76C48.5028 65.7601 48.4124 65.7659 48.323 65.776L48.2181 65.7607L48.2153 65.7909C47.5766 65.8922 46.985 66.2433 46.5348 66.7883C46.0847 67.3333 45.8021 68.0406 45.7319 68.7976C45.6618 69.5545 45.8082 70.3174 46.1479 70.9645C46.4875 71.6116 47.0008 72.1057 47.6059 72.3679L47.6002 72.4292L47.868 72.4646C48.1081 72.5388 48.3554 72.576 48.6036 72.5754C48.6311 72.5754 48.6583 72.5738 48.6857 72.5728L51.468 72.941C51.7951 73.0872 52.142 73.1616 52.4918 73.1607C52.6222 73.1602 52.7524 73.1493 52.8815 73.1281L53.1188 73.1595L53.1202 73.0774C53.7599 72.9072 54.3314 72.4847 54.7406 71.8794C55.1498 71.2741 55.3722 70.5222 55.3713 69.7475Z" fill="white"/>
<path d="M16.8528 116.299L16.5197 116.093C25.0525 96.8771 49.1864 55.8204 49.4291 55.4079L49.7381 55.6617C49.4954 56.074 25.3747 97.108 16.8528 116.299Z" fill="#3F3D56"/>
<path d="M42.99 145.097L42.6271 144.98C42.8029 144.216 60.2806 68.4682 66.3489 55.6902L66.6769 55.9077C60.6312 68.6383 43.1658 144.333 42.99 145.097Z" fill="#3F3D56"/>
<path d="M159.751 130.411C150.433 112.275 115.245 56.1079 114.891 55.5426L115.193 55.2781C115.547 55.8435 150.745 112.027 160.072 130.18L159.751 130.411Z" fill="#3F3D56"/>
<path d="M42.3127 147.113C43.0399 147.111 43.6281 146.215 43.6266 145.11C43.6251 144.005 43.0344 143.111 42.3072 143.112C41.58 143.114 40.9918 144.01 40.9933 145.115C40.9948 146.22 41.5855 147.114 42.3127 147.113Z" fill="#3F3D56"/>
<path d="M16.9383 117.159C17.6655 117.157 18.2538 116.261 18.2523 115.156C18.2508 114.051 17.6601 113.157 16.9329 113.158C16.2057 113.16 15.6174 114.056 15.6189 115.161C15.6204 116.266 16.2112 117.16 16.9383 117.159Z" fill="#3F3D56"/>
<path d="M160.099 131.409C160.827 131.408 161.415 130.511 161.413 129.406C161.412 128.302 160.821 127.407 160.094 127.409C159.367 127.41 158.779 128.307 158.78 129.411C158.782 130.516 159.372 131.41 160.099 131.409Z" fill="#3F3D56"/>
<path d="M47.9669 57.6141L118.933 58.5126C118.884 51.6645 116.546 45.1169 112.429 40.2962C108.312 35.4755 102.75 32.7724 96.9535 32.7758L69.8701 32.8273C58.5419 32.8488 48.9497 43.316 48.0328 56.6567L47.9669 57.6141Z" fill="#3F3D56"/>
<path opacity="0.2" d="M110.32 85.331H84.3834C84.0676 85.3306 83.7549 85.4044 83.4634 85.5481C83.1719 85.6917 82.9075 85.9023 82.6855 86.1677C82.4636 86.4331 82.2884 86.7479 82.1703 87.0939C82.0521 87.44 81.9933 87.8103 81.9973 88.1834L82.0198 90.4245L82.2504 114.417L82.2541 114.88L82.2616 115.644L82.2691 116.39L82.3122 120.888C82.3193 121.62 82.5669 122.32 83.0026 122.84C83.4384 123.361 84.0283 123.66 84.6476 123.676C84.7114 123.676 84.777 123.674 84.8426 123.67L91.0016 123.227L99.9122 122.585L103.057 122.359L103.758 122.308L108.66 121.956H108.662L110.465 121.825C111.071 121.781 111.641 121.465 112.057 120.942C112.473 120.419 112.706 119.728 112.706 119.01V88.1501C112.706 87.4027 112.454 86.6861 112.007 86.1576C111.559 85.6291 110.953 85.3318 110.32 85.331Z" fill="black"/>
<path d="M115.662 81.4123C115.568 81.4211 115.477 81.4544 115.395 81.5097C115.313 81.565 115.243 81.6409 115.189 81.7321L112.332 81.7375V80.842C112.331 80.0946 112.079 79.378 111.632 78.8495C111.185 78.3209 110.578 78.0237 109.946 78.0229H84.0085C83.6927 78.0225 83.38 78.0963 83.0886 78.2399C82.7971 78.3836 82.5327 78.5942 82.3107 78.8596C82.0887 79.1249 81.9136 79.4398 81.7954 79.7858C81.6773 80.1318 81.6185 80.5021 81.6225 80.8752L81.6318 81.7959L79.7886 81.7994C79.6877 81.6723 79.5489 81.5963 79.4016 81.5875C78.7556 81.5887 78.2341 83.2556 78.2369 85.3105C78.2398 87.3655 78.7657 89.0304 79.4117 89.0291C79.5243 89.0146 79.6322 88.9683 79.7264 88.8941C79.8207 88.8199 79.8984 88.72 79.9531 88.6029L115.199 88.5359C115.253 88.6268 115.323 88.7025 115.405 88.7575C115.487 88.8125 115.578 88.8454 115.672 88.8539C116.318 88.8527 116.839 87.1858 116.836 85.1309C116.834 83.0759 116.308 81.411 115.662 81.4123Z" fill="#6C63FF"/>
<path opacity="0.2" d="M115.662 81.4123C115.568 81.4211 115.477 81.4544 115.395 81.5097C115.314 81.565 115.243 81.6409 115.189 81.7321L112.332 81.7375V80.842C112.331 80.0946 112.079 79.378 111.632 78.8495C111.185 78.3209 110.578 78.0237 109.946 78.0229H84.0085C83.6928 78.0225 83.38 78.0963 83.0886 78.2399C82.7971 78.3836 82.5327 78.5942 82.3107 78.8596C82.0888 79.125 81.9136 79.4398 81.7955 79.7858C81.6773 80.1318 81.6185 80.5021 81.6225 80.8752L81.6317 81.7959L79.7886 81.7994C79.6877 81.6723 79.5489 81.5963 79.4016 81.5875C78.7556 81.5887 78.2342 83.2556 78.2369 85.3105C78.2397 87.3655 78.7657 89.0304 79.4117 89.0291C79.5243 89.0146 79.6322 88.9683 79.7264 88.8941C79.8207 88.8199 79.8984 88.72 79.9531 88.6029L115.199 88.5359C115.253 88.6268 115.323 88.7025 115.405 88.7575C115.487 88.8125 115.578 88.8454 115.672 88.8539C116.318 88.8527 116.839 87.1858 116.836 85.1309C116.834 83.0759 116.308 81.411 115.662 81.4123Z" fill="white"/>
<path d="M112.758 128.459C112.586 128.648 112.38 128.789 112.155 128.868C111.929 128.948 111.691 128.965 111.46 128.919C111.228 128.872 111.008 128.762 110.818 128.599C110.628 128.435 110.473 128.222 110.364 127.975L108.954 124.776L109.515 123.34L112.538 125.626C112.734 125.774 112.898 125.973 113.019 126.207C113.14 126.442 113.213 126.706 113.235 126.979C113.256 127.252 113.224 127.527 113.141 127.784C113.059 128.04 112.928 128.271 112.758 128.459Z" fill="#FFB8B8"/>
<path d="M118.849 147.122C118.816 146.753 118.667 146.411 118.431 146.165C118.196 145.918 117.891 145.784 117.576 145.789C117.29 145.787 117.011 145.899 116.784 146.106C116.558 146.314 116.397 146.605 116.328 146.933L115.079 154.098C115.037 154.308 115.016 154.522 115.015 154.737C115.015 156.353 116.159 157.476 117.576 157.476C118.993 157.476 120.138 156.353 120.138 154.737C120.138 154.478 120.108 154.221 120.05 153.971L118.849 147.122Z" fill="#3F3D56"/>
<path d="M128.295 150.327C128.168 150.195 128.032 150.077 127.887 149.974L123.116 146.035C122.652 145.691 122.156 145.7 121.795 146.116C121.638 146.293 121.538 146.529 121.513 146.784C121.488 147.039 121.539 147.296 121.658 147.511L125.26 153.104C125.343 153.24 125.435 153.367 125.535 153.485C126.159 154.309 127.544 154.355 128.305 153.485C129.056 152.6 129.047 151.024 128.295 150.327Z" fill="#3F3D56"/>
<path d="M131.881 144.492H127.049C126.894 144.485 126.743 144.55 126.629 144.674C126.515 144.798 126.447 144.97 126.439 145.153C126.437 145.322 126.482 145.487 126.568 145.621C126.654 145.756 126.776 145.852 126.914 145.896L131.472 147.562C132.134 147.744 133.026 147.047 133.026 146.176C133.026 145.069 132.505 144.492 131.881 144.492Z" fill="#3F3D56"/>
<path d="M108.889 145.15C108.884 145.056 108.863 144.964 108.828 144.879C108.792 144.795 108.743 144.72 108.682 144.658C108.622 144.597 108.552 144.55 108.476 144.521C108.4 144.491 108.32 144.48 108.241 144.488H103.409C102.8 144.488 102.287 145.265 102.287 146.136C102.287 147.006 103.153 147.744 103.817 147.562L108.444 145.896C108.582 145.858 108.704 145.76 108.787 145.623C108.869 145.485 108.905 145.317 108.889 145.15Z" fill="#3F3D56"/>
<path d="M112.205 146.042L107.433 149.964C107.285 150.062 107.147 150.181 107.021 150.316C106.67 150.702 106.464 151.236 106.446 151.802C106.429 152.368 106.602 152.919 106.929 153.333C106.958 153.371 106.989 153.407 107.021 153.443C107.396 153.86 107.891 154.093 108.406 154.093C108.921 154.093 109.416 153.86 109.791 153.443C109.893 153.327 109.984 153.2 110.065 153.063L113.67 147.501C113.791 147.289 113.843 147.033 113.818 146.779C113.793 146.526 113.692 146.291 113.533 146.118C113.355 145.922 113.124 145.806 112.881 145.792C112.638 145.779 112.398 145.867 112.205 146.042Z" fill="#3F3D56"/>
<path d="M119.628 138.376C119.684 138.28 119.714 138.167 119.717 138.051C119.717 137.364 118.572 136.887 117.155 136.887C115.738 136.887 114.593 137.364 114.593 138.051C114.595 138.146 114.617 138.239 114.657 138.322L115.906 141.367C116.049 141.655 116.565 141.856 117.155 141.854C117.82 141.854 118.372 141.605 118.427 141.287L119.628 138.376Z" fill="#3F3D56"/>
<path d="M127.883 138.583C127.122 138.213 125.738 138.233 125.113 138.583C125.019 138.63 124.927 138.684 124.839 138.745L121.237 141.122C120.992 141.31 121.049 141.56 121.374 141.715C121.8 141.889 122.262 141.901 122.695 141.749L127.465 140.075C127.604 140.034 127.74 139.984 127.874 139.925C128.625 139.629 128.634 138.959 127.883 138.583Z" fill="#3F3D56"/>
<path d="M132.605 141.689C132.605 141.319 131.713 141.023 131.051 141.1L126.492 141.808C126.22 141.854 126.018 141.958 126.018 142.124C126.018 142.29 126.315 142.405 126.627 142.405H131.459C132.083 142.405 132.605 142.16 132.605 141.689Z" fill="#3F3D56"/>
<path d="M108.022 141.808L103.395 141.1C102.731 141.023 101.865 141.336 101.865 141.706C101.865 142.076 102.378 142.407 102.987 142.407H107.819C108.155 142.407 108.467 142.298 108.467 142.125C108.467 141.953 108.323 141.854 108.022 141.808Z" fill="#3F3D56"/>
<path d="M113.111 141.714C113.449 141.557 113.489 141.318 113.248 141.126L109.643 138.762C109.556 138.7 109.464 138.646 109.369 138.601C108.472 138.233 107.496 138.233 106.6 138.601C106.568 138.616 106.537 138.631 106.507 138.648C105.828 139.014 105.869 139.588 106.6 139.93C106.734 139.991 106.871 140.041 107.011 140.08L111.783 141.746C112.218 141.899 112.682 141.888 113.111 141.714Z" fill="#3F3D56"/>
<path d="M126.982 137.884C126.982 146.689 122.828 146.852 117.704 146.852C112.581 146.852 104.168 145.11 108.427 137.884C112.919 130.261 120.624 115.733 117.704 114.964C117.704 114.964 126.982 129.078 126.982 137.884Z" fill="#F9A825"/>
<path opacity="0.5" d="M120.972 143.302C120.972 146.788 119.328 146.852 117.299 146.852C115.271 146.852 111.941 146.163 113.627 143.302C115.405 140.285 118.455 134.534 117.3 134.23C117.3 134.23 120.972 139.816 120.972 143.302Z" fill="#FF6584"/>
<path d="M112.706 117.436V119.01C112.706 119.728 112.473 120.419 112.057 120.942C111.641 121.465 111.071 121.781 110.465 121.825L84.8426 123.67C84.5199 123.693 84.1966 123.639 83.8923 123.51C83.588 123.381 83.3091 123.181 83.0724 122.92C82.8357 122.66 82.6463 122.346 82.5156 121.997C82.3849 121.647 82.3157 121.27 82.3122 120.888L82.2504 114.417L97.7492 114.121L112.706 117.436Z" fill="#3F3D56"/>
<path d="M108.528 125.235L96.969 118.142C96.9157 118.109 96.8689 118.063 96.8317 118.007C96.7945 117.952 96.7678 117.887 96.7533 117.818L94.2458 105.878C94.1003 105.185 94.1789 104.453 94.4661 103.825C94.7534 103.197 95.2286 102.718 95.7989 102.482L96.403 102.232C96.5376 102.177 96.6805 102.154 96.8228 102.167C96.9651 102.179 97.1038 102.225 97.2302 102.303C97.3567 102.382 97.4682 102.489 97.558 102.62C97.6477 102.752 97.7137 102.903 97.7519 103.065L100.223 113.578C100.246 113.676 100.295 113.764 100.361 113.829L109.779 123.049C109.86 123.129 109.914 123.241 109.928 123.365C109.943 123.488 109.918 123.614 109.858 123.717L109.073 125.074C109.014 125.174 108.927 125.247 108.826 125.276C108.726 125.306 108.62 125.291 108.528 125.235Z" fill="#E6E6E6"/>
<path d="M100.913 106.659C95.3071 103.171 89.4386 101.42 83.1484 102.461C85.0444 98.6639 86.4527 95.1536 86.3585 92.5257C86.3181 91.6813 86.4535 90.838 86.7529 90.0697C87.0524 89.3014 87.5067 88.6317 88.0761 88.119C88.9924 87.3164 90.1029 86.8834 91.2435 86.884C92.262 86.3474 93.416 86.2932 94.4673 86.7325C94.9136 86.9311 95.3194 87.2386 95.6582 87.635C95.997 88.0314 96.2612 88.5078 96.4336 89.0331C96.6486 89.6487 97.1116 90.1879 97.7831 90.663C98.4052 91.0882 98.912 91.7138 99.2443 92.4667C99.6867 93.5069 99.7171 94.554 99.1374 95.6114C101.308 98.306 101.314 102.355 100.913 106.659Z" fill="#2F2E41"/>
<path d="M92.9659 97.9313C95.1347 97.9313 96.8929 95.854 96.8929 93.2914C96.8929 90.7289 95.1347 88.6516 92.9659 88.6516C90.7971 88.6516 89.0389 90.7289 89.0389 93.2914C89.0389 95.854 90.7971 97.9313 92.9659 97.9313Z" fill="#FFB8B8"/>
<path d="M94.8359 103.345L90.2544 103.897C90.5002 100.732 90.597 97.8113 90.2544 95.6114H94.8359C93.9658 99.114 94.0421 101.611 94.8359 103.345Z" fill="#FFB8B8"/>
<path d="M97.29 103.225C97.2863 103.71 97.2775 104.19 97.2638 104.664C97.1682 108.061 96.8065 111.12 95.8206 113.372C95.6204 113.838 95.3811 114.28 95.1064 114.69C95.1045 114.694 95.102 114.698 95.0989 114.701C95.08 114.732 95.0594 114.761 95.0371 114.789C94.8355 115.085 94.6115 115.359 94.368 115.607L92.4917 117.932L92.4055 118.038L91.8582 118.47L89.0392 120.689L82.2691 116.39L82.2617 115.644L82.2542 114.88C83.7592 112.36 84.6983 109.082 85.2943 105.351C85.4574 104.33 85.5961 103.274 85.7142 102.188C85.7948 101.438 85.866 100.671 85.9278 99.8941C85.9374 99.6554 86.0058 99.4253 86.1246 99.2319C86.1246 99.2316 86.1247 99.2313 86.1248 99.2311C86.1249 99.2308 86.125 99.2305 86.1252 99.2303C86.1254 99.2301 86.1256 99.23 86.1258 99.2298C86.126 99.2297 86.1263 99.2297 86.1265 99.2297C86.4152 98.7956 86.9887 98.8045 87.6822 98.7602C88.655 98.6982 89.6128 98.1025 90.4731 98.665C90.4945 98.6765 90.5151 98.6899 90.5349 98.7048L93.0597 102.018L94.2199 100.541L94.2742 100.472L96.664 101.681C96.9084 101.806 97.1064 102.031 97.2215 102.315C97.3365 102.598 97.3609 102.922 97.29 103.225Z" fill="#E6E6E6"/>
<path d="M91.9613 119.509C91.9614 120.073 91.8711 120.633 91.6952 121.158L91.0017 123.227L84.8426 123.67C84.777 123.674 84.7114 123.676 84.6477 123.676C84.0283 123.66 83.4385 123.361 83.0027 122.84C82.5669 122.32 82.3193 121.62 82.3123 120.888L82.2692 116.39L82.2617 115.644L84.5033 116.767L86.6888 115.381C86.808 115.32 86.93 115.269 87.0543 115.226C87.2162 115.165 87.3816 115.118 87.5491 115.086H87.551C87.6316 115.071 87.7122 115.057 87.7928 115.048C88.7192 114.939 89.6473 115.236 90.4 115.883C90.8399 116.26 91.2052 116.745 91.4702 117.305C91.4905 117.344 91.5087 117.383 91.5246 117.425C91.6736 117.755 91.7858 118.106 91.8582 118.47C91.9264 118.81 91.961 119.159 91.9613 119.509Z" fill="#2F2E41"/>
<path opacity="0.2" d="M90.2076 106.272L91.0269 110.713L96.0045 115.773L91.6101 110.47L90.2076 106.272Z" fill="black"/>
<path opacity="0.2" d="M85.6262 108.371L87.1221 115.552L91.5166 117.43L87.4026 114.999L85.6262 108.371Z" fill="black"/>
<path d="M97.6876 93.5676C94.7933 91.9943 91.5212 91.5457 88.6181 93.2362L88.9921 89.2592L95.3501 88.044L97.6876 93.5676Z" fill="#2F2E41"/>
<path d="M120.953 128.515L99.6709 124.195L99.9318 122.676L120.953 128.515Z" fill="#3F3D56"/>
<path d="M103.221 125.144C103.049 125.334 102.843 125.474 102.618 125.554C102.392 125.634 102.154 125.651 101.923 125.604C101.691 125.558 101.471 125.448 101.281 125.284C101.091 125.121 100.936 124.907 100.827 124.661L99.4174 121.462L99.9784 120.026L103.001 122.312C103.197 122.46 103.361 122.659 103.482 122.893C103.603 123.127 103.676 123.391 103.698 123.665C103.719 123.938 103.687 124.213 103.604 124.47C103.522 124.726 103.391 124.957 103.221 125.144Z" fill="#FFB8B8"/>
<path d="M98.9912 121.921L87.432 114.827C87.3787 114.795 87.3319 114.749 87.2947 114.693C87.2575 114.637 87.2308 114.573 87.2163 114.504L84.7088 102.564C84.5634 101.871 84.6419 101.139 84.9292 100.511C85.2164 99.8827 85.6916 99.4039 86.2619 99.1681L86.866 98.9183C87.0006 98.8626 87.1435 98.8401 87.2858 98.8524C87.4281 98.8646 87.5668 98.9111 87.6933 98.9892C87.8197 99.0673 87.9312 99.1752 88.021 99.3063C88.1107 99.4374 88.1767 99.5888 88.2149 99.7512L90.6863 110.264C90.7095 110.362 90.7575 110.45 90.8241 110.515L100.242 119.735C100.323 119.815 100.377 119.927 100.391 120.051C100.406 120.174 100.381 120.299 100.321 120.402L99.5356 121.759C99.4772 121.86 99.3896 121.932 99.2893 121.962C99.189 121.992 99.083 121.977 98.9912 121.921Z" fill="#E6E6E6"/>
<path d="M118.659 129.302C118.762 129.325 118.867 129.3 118.954 129.232C119.041 129.164 119.101 129.058 119.122 128.937L119.335 127.676C119.355 127.555 119.334 127.43 119.277 127.328C119.219 127.225 119.129 127.154 119.027 127.13L115.938 126.4C115.835 126.376 115.729 126.401 115.643 126.47C115.556 126.538 115.496 126.644 115.475 126.765L115.262 128.026C115.252 128.085 115.252 128.147 115.262 128.207C115.272 128.267 115.292 128.324 115.32 128.374C115.349 128.425 115.386 128.469 115.429 128.502C115.471 128.536 115.52 128.56 115.57 128.572L118.659 129.302Z" fill="#E6E6E6"/>
</g>
<defs>
<clipPath id="clip0_3_4">
<rect width="176" height="161" fill="white"/>
</clipPath>
</defs>
</svg>
