<?xml version="1.0" encoding="UTF-8"?>
<svg xmlns="http://www.w3.org/2000/svg" viewBox="0 0 628.12 628.12">
  <g id="OP_brand_blue" data-name="OP brand blue">
    <rect x="16.17" y="13.6" width="596.29" height="596.29" rx="94.13" ry="94.13" style="fill: #0475bc;"/>
  </g>
  <g id="Picnic_Shelters" data-name="Picnic Shelters">
    <g>
      <path d="M486.95,367.98h-54.31l-13.47-46.55h30.19v-22.61h-174.81v22.61h27.37l-13.47,46.55h-52.84v22.08h46.44l-22.1,76.08h24.08l21.52-76.08h110.06l21.56,76.08h23.96l-22.06-76.08h47.91v-22.08Zm-175.19,0l13.18-46.55h71.2l13.18,46.55h-97.55Z" style="fill: #fff;"/>
      <polygon points="522.94 102.54 83.34 301.06 83.34 343.71 127.47 323.92 127.47 509.53 522.94 509.53 522.94 482.34 168.52 482.34 168.52 305.29 522.94 145.19 522.94 102.54" style="fill: #fff;"/>
    </g>
  </g>
</svg>