<svg width="90" height="92" viewBox="0 0 90 92" fill="none" xmlns="http://www.w3.org/2000/svg">
<g filter="url(#filter0_d_4_97)">
<path d="M52.8779 51.0868C54.3391 48.0119 54.0333 44.786 52.1944 43.8811C50.3555 42.9761 47.6801 44.7356 46.2189 47.8105L52.8779 51.0868Z" fill="black"/>
<path d="M40.5559 57.0084C37.7501 59.9547 34.8414 63.9863 35.3296 68.3516C35.4495 69.4207 35.9289 70.5124 36.8278 71.1363C37.5756 71.6557 38.5306 71.7953 39.4222 71.7029C42.1052 71.4249 44.5133 69.8494 46.1838 67.8541C48.5306 65.0514 49.3728 62.2784 50.028 59.2469C50.6832 56.2154 51.16 53.911 51.8186 53.0683C49.8128 52.0401 47.8047 51.0157 45.8004 49.9837C44.8717 52.9667 42.5922 54.7901 40.5559 57.0084Z" fill="black"/>
<path d="M47.4584 34.2928C46.1361 32.7268 42.9319 33.2092 40.3009 35.3697L45.0884 41.0404C47.7194 38.8798 48.7807 35.8587 47.4584 34.2928Z" fill="black"/>
<path d="M23.5454 53.4058C23.6711 54.2934 24.0368 55.186 24.7218 55.7866C25.5444 56.5083 26.7195 56.7098 27.7859 56.5679C32.1395 55.9871 35.349 52.1913 37.5313 48.7569C39.1916 46.2449 40.411 43.5928 43.0819 41.9716C41.5964 40.2759 40.1178 38.5749 38.6352 36.8764C37.9765 37.7191 35.8557 38.7378 33.0719 40.1062C30.2884 41.4741 27.8013 42.9615 25.6478 45.9153C24.1142 48.0183 23.1672 50.7352 23.5454 53.4058Z" fill="black"/>
</g>
<defs>
<filter id="filter0_d_4_97" x="-4" y="0" width="97.3082" height="99.4086" filterUnits="userSpaceOnUse" color-interpolation-filters="sRGB">
<feFlood flood-opacity="0" result="BackgroundImageFix"/>
<feColorMatrix in="SourceAlpha" type="matrix" values="0 0 0 0 0 0 0 0 0 0 0 0 0 0 0 0 0 0 127 0" result="hardAlpha"/>
<feOffset dy="4"/>
<feGaussianBlur stdDeviation="2"/>
<feComposite in2="hardAlpha" operator="out"/>
<feColorMatrix type="matrix" values="0 0 0 0 0 0 0 0 0 0 0 0 0 0 0 0 0 0 0.25 0"/>
<feBlend mode="normal" in2="BackgroundImageFix" result="effect1_dropShadow_4_97"/>
<feBlend mode="normal" in="SourceGraphic" in2="effect1_dropShadow_4_97" result="shape"/>
</filter>
</defs>
</svg>
