<svg width="59" height="74" viewBox="0 0 59 74" fill="none" xmlns="http://www.w3.org/2000/svg">
<g filter="url(#filter0_d_4_90)">
<path d="M39.2107 36.0159C38.441 32.5595 36.194 30.1248 34.1914 30.5778C32.1888 31.0308 31.1896 34.2005 31.9594 37.657L39.2107 36.0159Z" fill="black"/>
<path d="M33.2506 48.8335C32.8878 53.0563 33.12 58.2316 36.2188 61.4781C36.978 62.2729 38.0326 62.8533 39.1245 62.78C40.033 62.7193 40.8675 62.2144 41.508 61.5613C43.4351 59.5958 44.3396 56.7495 44.4055 54.0385C44.4982 50.2303 43.4318 47.4213 42.0581 44.5226C40.6845 41.6238 39.6235 39.4341 39.6147 38.3196C37.4047 38.7801 35.1953 39.2454 32.9842 39.7018C34.1136 42.7382 33.4641 45.7036 33.2506 48.8335Z" fill="black"/>
<path d="M24.5172 25.8211C22.5077 25.3999 20.2996 27.87 19.5848 31.3382L26.8613 32.864C27.5761 29.3958 26.5267 26.2424 24.5172 25.8211Z" fill="black"/>
<path d="M17.6934 56.9161C18.3441 57.5591 19.1859 58.0507 20.0959 58.0969C21.1889 58.1529 22.2341 57.5558 22.9806 56.7491C26.027 53.4539 26.177 48.2762 25.7479 44.059C25.4843 40.9329 24.7884 37.9782 25.8701 34.9243C23.652 34.5029 21.4361 34.0728 19.2185 33.6473C19.2274 34.7619 18.2013 36.9675 16.8738 39.8883C15.5462 42.8085 14.5251 45.634 14.6776 49.4403C14.7859 52.1505 15.7354 54.9815 17.6934 56.9161Z" fill="black"/>
</g>
<defs>
<filter id="filter0_d_4_90" x="-4" y="0" width="66.8474" height="81.904" filterUnits="userSpaceOnUse" color-interpolation-filters="sRGB">
<feFlood flood-opacity="0" result="BackgroundImageFix"/>
<feColorMatrix in="SourceAlpha" type="matrix" values="0 0 0 0 0 0 0 0 0 0 0 0 0 0 0 0 0 0 127 0" result="hardAlpha"/>
<feOffset dy="4"/>
<feGaussianBlur stdDeviation="2"/>
<feComposite in2="hardAlpha" operator="out"/>
<feColorMatrix type="matrix" values="0 0 0 0 0 0 0 0 0 0 0 0 0 0 0 0 0 0 0.25 0"/>
<feBlend mode="normal" in2="BackgroundImageFix" result="effect1_dropShadow_4_90"/>
<feBlend mode="normal" in="SourceGraphic" in2="effect1_dropShadow_4_90" result="shape"/>
</filter>
</defs>
</svg>
