<svg width="655" height="501" viewBox="0 0 655 501" fill="none" xmlns="http://www.w3.org/2000/svg">
<g clip-path="url(#clip0_60_20)">
<path d="M130.684 375.14C130.158 374.252 127.881 375.203 127.462 374.397C127.045 373.595 129.161 372.372 130.37 369.578C130.588 369.074 131.961 365.9 130.944 364.92C129.017 363.064 120.197 370.726 117.11 368.218C116.433 367.668 115.96 366.57 113.909 364.786C113.094 364.076 112.601 363.756 112.123 363.875C111.446 364.044 111.392 364.951 110.666 366.733C109.577 369.406 108.933 369.244 108.298 371.377C107.827 372.96 107.935 373.88 107.381 374.059C106.596 374.313 105.874 372.634 104.88 372.784C103.866 372.938 103.252 374.893 103.059 376.357C102.695 379.103 103.704 380.916 104.263 382.822C104.871 384.893 105.231 388.043 103.828 392.502L89.9402 431.631C93.0062 423.602 101.884 401.592 105.614 393.413C106.691 391.052 107.88 388.657 110.322 387.711C112.672 386.801 115.9 387.345 120.016 386.353C120.496 386.237 121.83 385.898 121.998 385.114C122.137 384.465 121.352 384.103 121.473 383.495C121.635 382.681 123.177 382.671 125.073 381.731C126.41 381.068 127.243 380.279 127.959 379.601C128.175 379.397 131.385 376.321 130.684 375.14Z" fill="#F2F2F2"/>
<path d="M76.0453 395.739C75.4578 395.741 75.2672 397.133 74.7511 397.106C74.2369 397.079 74.2471 395.688 73.2248 394.289C73.0404 394.037 71.8787 392.446 71.1045 392.663C69.6371 393.073 70.8529 399.613 68.7317 400.404C68.2661 400.578 67.5904 400.493 66.1235 400.985C65.5399 401.181 65.2404 401.33 65.1612 401.599C65.0487 401.98 65.4781 402.268 66.1433 403.139C67.1409 404.444 66.8758 404.714 67.7393 405.641C68.3804 406.328 68.8631 406.541 68.7912 406.865C68.6894 407.323 67.657 407.193 67.4439 407.724C67.2265 408.267 68.0091 409.132 68.6716 409.649C69.9149 410.62 71.0955 410.648 72.1923 410.923C73.3841 411.223 75.0342 411.955 76.8178 413.93L92.0157 432.036C88.9595 428.215 80.7182 417.507 77.7802 413.316C76.932 412.106 76.0996 410.832 76.3402 409.361C76.5717 407.944 77.7698 406.517 78.4707 404.211C78.5525 403.941 78.7708 403.189 78.4342 402.88C78.1559 402.625 77.7519 402.905 77.4885 402.671C77.1352 402.357 77.5755 401.596 77.6611 400.395C77.7215 399.547 77.5749 398.911 77.4488 398.364C77.4108 398.199 76.8273 395.736 76.0453 395.739Z" fill="#F2F2F2"/>
<path d="M87.7653 398.37L87.4114 395.21L87.5731 394.971C88.3214 393.863 88.7028 392.782 88.7074 391.755C88.7082 391.592 88.7005 391.428 88.6929 391.262C88.6624 390.603 88.6243 389.784 89.0514 388.829C89.2909 388.296 89.9637 387.063 90.9752 387.216C91.2476 387.254 91.4535 387.379 91.6099 387.526C91.6328 387.489 91.6564 387.453 91.6816 387.413C91.9966 386.932 92.2461 386.726 92.4864 386.528C92.671 386.375 92.8617 386.218 93.1607 385.846C93.2919 385.683 93.3941 385.539 93.4803 385.419C93.742 385.054 94.0837 384.619 94.6863 384.627C95.3301 384.658 95.6673 385.19 95.8908 385.542C96.2898 386.171 96.4705 386.624 96.5903 386.925C96.6338 387.034 96.6834 387.158 96.7085 387.196C96.916 387.501 98.6026 387.216 99.238 387.112C100.665 386.874 101.9 386.668 102.409 387.568C102.774 388.212 102.503 389.064 101.58 390.167C101.292 390.51 100.986 390.771 100.715 390.975C100.94 391.109 101.141 391.315 101.223 391.639C101.415 392.405 100.757 393.172 99.267 393.923C98.897 394.11 98.3989 394.361 97.701 394.481C97.3722 394.538 97.0762 394.551 96.823 394.559C96.8176 394.705 96.7833 394.864 96.694 395.027C96.4324 395.508 95.8877 395.737 95.067 395.682C94.1638 395.634 93.42 395.462 92.764 395.311C92.1912 395.18 91.6976 395.068 91.3101 395.094C90.5915 395.152 90.0377 395.727 89.3878 396.474L87.7653 398.37Z" fill="#F2F2F2"/>
<path d="M89.4071 379.558L86.4406 380.702L86.1679 380.606C84.9067 380.163 83.7637 380.068 82.7693 380.324C82.6112 380.365 82.4553 380.414 82.2964 380.463C81.6666 380.66 80.8838 380.905 79.8516 380.734C79.2759 380.637 77.9128 380.299 77.8038 379.282C77.7716 379.009 77.8404 378.778 77.9424 378.59C77.9012 378.577 77.8598 378.563 77.815 378.549C77.2702 378.366 77.0078 378.177 76.755 377.995C76.5606 377.855 76.3602 377.71 75.9243 377.516C75.7331 377.43 75.5684 377.368 75.43 377.315C75.0109 377.154 74.5037 376.934 74.3582 376.349C74.2244 375.719 74.6539 375.257 74.9381 374.952C75.4449 374.406 75.8373 374.117 76.0977 373.925C76.1929 373.855 76.2999 373.775 76.3304 373.741C76.5729 373.463 75.8691 371.904 75.6076 371.316C75.0154 369.996 74.5029 368.853 75.2445 368.133C75.7748 367.617 76.6669 367.663 77.968 368.276C78.373 368.467 78.7029 368.697 78.9696 368.907C79.0424 368.656 79.1905 368.409 79.4826 368.248C80.1747 367.868 81.084 368.31 82.1879 369.56C82.4633 369.871 82.8316 370.289 83.1253 370.934C83.2633 371.237 83.3516 371.52 83.4232 371.763C83.5663 371.731 83.7284 371.724 83.909 371.769C84.4402 371.9 84.7997 372.369 84.9548 373.177C85.1381 374.062 85.16 374.826 85.1803 375.498C85.1987 376.086 85.2162 376.592 85.3396 376.96C85.5779 377.64 86.2747 378.03 87.1612 378.469L89.4071 379.558Z" fill="#F2F2F2"/>
<path d="M87.7653 370.25L87.4114 367.09L87.5731 366.851C88.3214 365.743 88.7028 364.661 88.7074 363.635C88.7082 363.471 88.7005 363.308 88.6929 363.142C88.6624 362.483 88.6243 361.663 89.0514 360.708C89.2909 360.176 89.9637 358.943 90.9752 359.096C91.2476 359.134 91.4535 359.259 91.6099 359.405C91.6328 359.369 91.6564 359.332 91.6816 359.293C91.9966 358.812 92.2461 358.606 92.4864 358.408C92.671 358.255 92.8617 358.098 93.1607 357.726C93.2919 357.563 93.3941 357.419 93.4803 357.299C93.742 356.934 94.0837 356.499 94.6863 356.507C95.3301 356.537 95.6673 357.07 95.8908 357.422C96.2898 358.051 96.4705 358.504 96.5903 358.804C96.6338 358.914 96.6834 359.038 96.7085 359.076C96.916 359.381 98.6026 359.096 99.238 358.992C100.665 358.754 101.9 358.548 102.409 359.448C102.774 360.092 102.503 360.943 101.58 362.046C101.292 362.39 100.986 362.65 100.715 362.855C100.94 362.989 101.141 363.195 101.223 363.519C101.415 364.284 100.757 365.052 99.267 365.802C98.897 365.99 98.3989 366.24 97.701 366.361C97.3722 366.417 97.0762 366.431 96.823 366.439C96.8176 366.585 96.7833 366.744 96.694 366.907C96.4324 367.388 95.8877 367.616 95.067 367.562C94.1638 367.514 93.42 367.342 92.764 367.191C92.1912 367.06 91.6976 366.948 91.3101 366.974C90.5915 367.032 90.0377 367.607 89.3878 368.353L87.7653 370.25Z" fill="#F2F2F2"/>
<path d="M90.9981 431.58L90.336 431.165L89.564 431.253C89.5518 431.182 89.5099 431.017 89.4466 430.759C89.101 429.346 88.0476 425.047 87.1688 418.276C86.5555 413.55 86.2084 408.691 86.1367 403.832C86.065 398.965 86.2954 395.281 86.48 392.319C86.6196 390.086 86.7889 387.959 86.9552 385.887C87.3977 380.352 87.8149 375.124 87.5044 369.336C87.4358 368.044 87.2916 365.354 85.7202 362.492C84.8087 360.832 83.5531 359.358 81.9878 358.113L82.9611 356.89C84.6889 358.266 86.078 359.898 87.0902 361.741C88.8325 364.915 88.9896 367.845 89.0652 369.253C89.381 375.144 88.9591 380.423 88.5121 386.011C88.3474 388.075 88.178 390.193 88.0392 392.417C87.8561 395.351 87.628 399.003 87.699 403.807C87.7691 408.608 88.1124 413.408 88.7173 418.075C89.5854 424.76 90.6236 428.995 90.9646 430.387C91.1461 431.13 91.1843 431.285 90.9981 431.58Z" fill="#F2F2F2"/>
<path d="M79.1225 360.595C79.0585 360.595 78.9936 360.594 78.928 360.589C77.5977 360.518 76.3657 359.721 75.2658 358.223C74.7501 357.518 74.4862 356.714 73.9598 355.111C73.8782 354.864 73.4815 353.61 73.2405 351.884C73.0826 350.757 73.1024 350.285 73.3259 349.869C73.5738 349.405 73.9751 349.082 74.4267 348.863C74.4068 348.714 74.4228 348.56 74.4877 348.403C74.7539 347.751 75.4618 347.837 75.8447 347.878C76.0385 347.902 76.2803 347.934 76.5412 347.921C76.9516 347.901 77.172 347.779 77.5061 347.596C77.8258 347.42 78.2232 347.202 78.8128 347.082C79.9754 346.839 80.9495 347.168 81.2706 347.277C82.9602 347.84 83.7932 349.153 84.7574 350.674C84.9497 350.979 85.6095 352.09 86.0451 353.613C86.3593 354.711 86.3151 355.199 86.2205 355.562C86.0283 356.308 85.5744 356.736 84.4218 357.678C83.2181 358.666 82.6139 359.16 82.0952 359.46C80.8877 360.158 80.1294 360.595 79.1225 360.595Z" fill="#F2F2F2"/>
<path d="M575.685 376.14C575.158 375.252 572.881 376.203 572.463 375.397C572.045 374.595 574.161 373.372 575.37 370.578C575.588 370.074 576.961 366.9 575.945 365.92C574.017 364.064 565.197 371.726 562.11 369.218C561.433 368.668 560.96 367.57 558.91 365.786C558.094 365.076 557.601 364.756 557.124 364.875C556.446 365.044 556.393 365.951 555.666 367.733C554.577 370.406 553.933 370.244 553.299 372.377C552.828 373.96 552.935 374.88 552.381 375.059C551.596 375.313 550.874 373.634 549.88 373.784C548.866 373.938 548.253 375.893 548.059 377.357C547.695 380.103 548.704 381.916 549.263 383.822C549.871 385.893 550.231 389.043 548.828 393.502L534.94 432.631C538.006 424.602 546.884 402.592 550.614 394.413C551.691 392.052 552.88 389.657 555.322 388.711C557.672 387.801 560.901 388.345 565.016 387.353C565.497 387.237 566.831 386.898 566.998 386.114C567.137 385.465 566.353 385.103 566.473 384.495C566.635 383.681 568.178 383.671 570.074 382.731C571.41 382.068 572.243 381.279 572.96 380.601C573.176 380.397 576.385 377.321 575.685 376.14Z" fill="#F2F2F2"/>
<path d="M521.046 396.739C520.458 396.741 520.267 398.133 519.751 398.106C519.237 398.079 519.247 396.688 518.225 395.289C518.041 395.037 516.879 393.446 516.105 393.663C514.637 394.073 515.853 400.613 513.732 401.404C513.266 401.578 512.591 401.493 511.124 401.985C510.54 402.181 510.241 402.33 510.161 402.599C510.049 402.98 510.478 403.268 511.144 404.139C512.141 405.444 511.876 405.714 512.74 406.641C513.381 407.328 513.863 407.541 513.791 407.865C513.69 408.323 512.657 408.193 512.444 408.724C512.227 409.267 513.009 410.132 513.672 410.649C514.915 411.62 516.096 411.648 517.193 411.923C518.384 412.223 520.034 412.955 521.818 414.93L537.016 433.036C533.96 429.215 525.718 418.507 522.78 414.316C521.932 413.106 521.1 411.832 521.34 410.361C521.572 408.944 522.77 407.517 523.471 405.211C523.553 404.941 523.771 404.189 523.434 403.88C523.156 403.625 522.752 403.905 522.489 403.671C522.135 403.357 522.576 402.596 522.661 401.395C522.722 400.547 522.575 399.911 522.449 399.364C522.411 399.199 521.828 396.736 521.046 396.739Z" fill="#F2F2F2"/>
<path d="M532.766 399.37L532.412 396.21L532.573 395.971C533.322 394.863 533.703 393.782 533.708 392.755C533.708 392.592 533.701 392.428 533.693 392.262C533.663 391.603 533.624 390.784 534.052 389.829C534.291 389.296 534.964 388.063 535.975 388.216C536.248 388.254 536.454 388.379 536.61 388.526C536.633 388.489 536.657 388.453 536.682 388.413C536.997 387.932 537.246 387.726 537.487 387.528C537.671 387.375 537.862 387.218 538.161 386.846C538.292 386.683 538.394 386.539 538.481 386.419C538.742 386.054 539.084 385.619 539.687 385.627C540.33 385.658 540.668 386.19 540.891 386.542C541.29 387.171 541.471 387.624 541.591 387.925C541.634 388.034 541.684 388.158 541.709 388.196C541.916 388.501 543.603 388.216 544.238 388.112C545.666 387.874 546.9 387.668 547.409 388.568C547.774 389.212 547.503 390.064 546.58 391.167C546.292 391.51 545.987 391.771 545.715 391.975C545.94 392.109 546.141 392.315 546.223 392.639C546.415 393.405 545.757 394.172 544.267 394.923C543.897 395.11 543.399 395.361 542.701 395.481C542.372 395.538 542.076 395.551 541.823 395.559C541.818 395.705 541.784 395.864 541.694 396.027C541.433 396.508 540.888 396.737 540.067 396.682C539.164 396.634 538.42 396.462 537.764 396.311C537.191 396.18 536.698 396.068 536.31 396.094C535.592 396.152 535.038 396.727 534.388 397.474L532.766 399.37Z" fill="#F2F2F2"/>
<path d="M534.408 380.558L531.441 381.702L531.168 381.606C529.907 381.163 528.764 381.068 527.77 381.324C527.612 381.365 527.456 381.414 527.297 381.463C526.667 381.66 525.884 381.905 524.852 381.734C524.276 381.637 522.913 381.299 522.804 380.282C522.772 380.009 522.841 379.778 522.943 379.59C522.902 379.577 522.86 379.563 522.816 379.549C522.271 379.366 522.008 379.177 521.755 378.995C521.561 378.855 521.361 378.71 520.925 378.516C520.734 378.43 520.569 378.368 520.431 378.315C520.011 378.154 519.504 377.934 519.359 377.349C519.225 376.719 519.654 376.257 519.939 375.952C520.445 375.406 520.838 375.117 521.098 374.925C521.193 374.855 521.3 374.775 521.331 374.741C521.573 374.463 520.87 372.904 520.608 372.316C520.016 370.996 519.503 369.853 520.245 369.133C520.775 368.617 521.667 368.663 522.969 369.276C523.374 369.467 523.703 369.697 523.97 369.907C524.043 369.656 524.191 369.409 524.483 369.248C525.175 368.868 526.085 369.31 527.188 370.56C527.464 370.871 527.832 371.289 528.126 371.934C528.264 372.237 528.352 372.52 528.424 372.763C528.567 372.731 528.729 372.724 528.91 372.769C529.441 372.9 529.8 373.369 529.955 374.177C530.139 375.062 530.161 375.826 530.181 376.498C530.199 377.086 530.217 377.592 530.34 377.96C530.578 378.64 531.275 379.03 532.162 379.469L534.408 380.558Z" fill="#F2F2F2"/>
<path d="M532.766 371.25L532.412 368.09L532.573 367.851C533.322 366.743 533.703 365.661 533.708 364.635C533.708 364.471 533.701 364.308 533.693 364.142C533.663 363.483 533.624 362.663 534.052 361.708C534.291 361.176 534.964 359.943 535.975 360.096C536.248 360.134 536.454 360.259 536.61 360.405C536.633 360.369 536.657 360.332 536.682 360.293C536.997 359.812 537.246 359.606 537.487 359.408C537.671 359.255 537.862 359.098 538.161 358.726C538.292 358.563 538.394 358.419 538.481 358.299C538.742 357.934 539.084 357.499 539.687 357.507C540.33 357.537 540.668 358.07 540.891 358.422C541.29 359.051 541.471 359.504 541.591 359.804C541.634 359.914 541.684 360.038 541.709 360.076C541.916 360.381 543.603 360.096 544.238 359.992C545.666 359.754 546.9 359.548 547.409 360.448C547.774 361.092 547.503 361.943 546.58 363.046C546.292 363.39 545.987 363.65 545.715 363.855C545.94 363.989 546.141 364.195 546.223 364.519C546.415 365.284 545.757 366.052 544.267 366.802C543.897 366.99 543.399 367.24 542.701 367.361C542.372 367.417 542.076 367.431 541.823 367.439C541.818 367.585 541.784 367.744 541.694 367.907C541.433 368.388 540.888 368.616 540.067 368.562C539.164 368.514 538.42 368.342 537.764 368.191C537.191 368.06 536.698 367.948 536.31 367.974C535.592 368.032 535.038 368.607 534.388 369.353L532.766 371.25Z" fill="#F2F2F2"/>
<path d="M535.998 432.58L535.336 432.165L534.564 432.253C534.552 432.182 534.51 432.017 534.447 431.759C534.101 430.346 533.048 426.047 532.169 419.276C531.556 414.55 531.208 409.691 531.137 404.832C531.065 399.965 531.295 396.281 531.48 393.319C531.62 391.086 531.789 388.959 531.955 386.887C532.398 381.352 532.815 376.124 532.504 370.336C532.436 369.044 532.292 366.354 530.72 363.492C529.809 361.832 528.553 360.358 526.988 359.113L527.961 357.89C529.689 359.266 531.078 360.898 532.09 362.741C533.833 365.915 533.99 368.845 534.065 370.253C534.381 376.144 533.959 381.423 533.512 387.011C533.347 389.075 533.178 391.193 533.039 393.417C532.856 396.351 532.628 400.003 532.699 404.807C532.769 409.608 533.112 414.408 533.717 419.075C534.585 425.76 535.624 429.995 535.965 431.387C536.146 432.13 536.184 432.285 535.998 432.58Z" fill="#F2F2F2"/>
<path d="M524.123 361.595C524.059 361.595 523.994 361.594 523.928 361.589C522.598 361.518 521.366 360.721 520.266 359.223C519.75 358.518 519.486 357.714 518.96 356.111C518.878 355.864 518.482 354.61 518.241 352.884C518.083 351.757 518.103 351.285 518.326 350.869C518.574 350.405 518.975 350.082 519.427 349.863C519.407 349.714 519.423 349.56 519.488 349.403C519.754 348.751 520.462 348.837 520.845 348.878C521.039 348.902 521.281 348.934 521.541 348.921C521.952 348.901 522.172 348.779 522.506 348.596C522.826 348.42 523.223 348.202 523.813 348.082C524.976 347.839 525.95 348.168 526.271 348.277C527.96 348.84 528.793 350.153 529.758 351.674C529.95 351.979 530.61 353.09 531.045 354.613C531.36 355.711 531.315 356.199 531.221 356.562C531.028 357.308 530.575 357.736 529.422 358.678C528.218 359.666 527.614 360.16 527.095 360.46C525.888 361.158 525.13 361.595 524.123 361.595Z" fill="#F2F2F2"/>
<path d="M320.315 195.1C357.871 195.1 388.315 164.656 388.315 127.1C388.315 89.5451 357.871 59.1005 320.315 59.1005C282.76 59.1005 252.315 89.5451 252.315 127.1C252.315 164.656 282.76 195.1 320.315 195.1Z" fill="#FF6884"/>
<path d="M583.04 431.164C583.04 431.628 582.664 432.004 582.2 432.004H0V430.324H582.2C582.664 430.324 583.04 430.701 583.04 431.164Z" fill="#E6E6E6"/>
<path d="M495.315 431.1C495.315 469.208 499.315 497.1 457.815 500.1C413.252 503.322 420.315 469.208 420.315 431.1C420.315 392.993 414.315 355.1 457.815 362.1C478.263 365.391 495.315 392.993 495.315 431.1Z" fill="#3F3D56"/>
<path d="M432.315 479.1C435.629 479.1 438.315 457.61 438.315 431.1C438.315 404.591 435.629 383.1 432.315 383.1C429.002 383.1 426.315 404.591 426.315 431.1C426.315 457.61 429.002 479.1 432.315 479.1Z" fill="#E6E6E6"/>
<path d="M194.953 369.734C194.953 403.363 198.483 427.978 161.86 430.625C122.534 433.468 128.767 403.363 128.767 369.734C128.767 336.105 123.472 302.665 161.86 308.843C179.905 311.746 194.953 336.105 194.953 369.734Z" fill="#3F3D56"/>
<path d="M139.357 412.093C142.281 412.093 144.652 393.128 144.652 369.734C144.652 346.34 142.281 327.375 139.357 327.375C136.433 327.375 134.062 346.34 134.062 369.734C134.062 393.128 136.433 412.093 139.357 412.093Z" fill="#E6E6E6"/>
<path d="M251.815 430.6C251.815 468.708 255.815 496.6 214.315 499.6C169.752 502.822 176.815 468.708 176.815 430.6C176.815 392.493 170.815 354.6 214.315 361.6C234.763 364.891 251.815 392.493 251.815 430.6Z" fill="#3F3D56"/>
<path d="M188.815 478.6C192.129 478.6 194.815 457.11 194.815 430.6C194.815 404.091 192.129 382.6 188.815 382.6C185.502 382.6 182.815 404.091 182.815 430.6C182.815 457.11 185.502 478.6 188.815 478.6Z" fill="#E6E6E6"/>
<path d="M133.315 289.1V312.754L126.815 323.6L128.815 361.6L130.433 362.6L129.315 324.1C140.708 319.859 144.434 327.672 143.315 343.1L141.315 369.1L173.315 389.1L177.315 348.1L192.315 341.1L208.815 410.6H485.264C496.659 410.6 505.766 401.118 505.304 389.731L501.815 303.6L492.402 294.187L483.682 193.322C481.507 168.169 460.178 149.024 434.937 149.568L262.003 153.295C252.621 153.497 243.352 155.386 234.639 158.871L192.815 175.6L165.819 202.597L161.815 267.6L151.608 266.713C144.265 266.074 137.569 270.927 135.889 278.103L133.315 289.1Z" fill="#64828B"/>
<path d="M222.815 382.6C228.338 382.6 232.815 378.123 232.815 372.6C232.815 367.078 228.338 362.6 222.815 362.6C217.293 362.6 212.815 367.078 212.815 372.6C212.815 378.123 217.293 382.6 222.815 382.6Z" fill="#3F3D56"/>
<path d="M245.815 382.6C251.338 382.6 255.815 378.123 255.815 372.6C255.815 367.078 251.338 362.6 245.815 362.6C240.293 362.6 235.815 367.078 235.815 372.6C235.815 378.123 240.293 382.6 245.815 382.6Z" fill="#3F3D56"/>
<path d="M469.815 382.6C475.338 382.6 479.815 378.123 479.815 372.6C479.815 367.078 475.338 362.6 469.815 362.6C464.293 362.6 459.815 367.078 459.815 372.6C459.815 378.123 464.293 382.6 469.815 382.6Z" fill="#3F3D56"/>
<path d="M492.815 382.6C498.338 382.6 502.815 378.123 502.815 372.6C502.815 367.078 498.338 362.6 492.815 362.6C487.293 362.6 482.815 367.078 482.815 372.6C482.815 378.123 487.293 382.6 492.815 382.6Z" fill="#3F3D56"/>
<path d="M477.21 278.672H242.116C240.319 278.672 238.646 277.956 237.405 276.655C236.165 275.354 235.529 273.649 235.613 271.854L239.048 199.229C239.211 195.796 242.03 193.071 245.467 193.027L467.451 190.17C470.729 190.139 473.571 192.569 473.992 195.851L483.667 271.334C483.905 273.188 483.333 275.057 482.097 276.462C480.862 277.866 479.08 278.672 477.21 278.672Z" fill="white"/>
<path d="M209.292 275.1H194.038C192.228 275.1 190.486 274.339 189.258 273.01C188.029 271.681 187.406 269.884 187.548 268.079L191.939 212.358C192.18 209.299 194.47 206.858 197.508 206.425L213.27 204.173C215.244 203.892 217.209 204.515 218.66 205.884C220.11 207.254 220.846 209.179 220.678 211.166L215.779 269.139C215.492 272.537 212.703 275.1 209.292 275.1Z" fill="white"/>
<path d="M174.213 273.684C174.055 273.684 173.896 273.679 173.738 273.668L171.947 273.54C170.178 273.413 168.574 272.597 167.431 271.24C166.288 269.883 165.757 268.164 165.933 266.398L170.86 217.125C171.152 214.208 173.375 211.834 176.268 211.351C178.239 211.02 180.22 211.602 181.702 212.942C183.184 214.28 183.961 216.191 183.835 218.184L180.698 267.587C180.587 269.332 179.801 270.927 178.484 272.077C177.287 273.123 175.786 273.684 174.213 273.684Z" fill="white"/>
<path d="M149.409 374.214L146.815 317.6C146.815 317.6 140.815 309.6 136.815 311.6C132.815 313.6 126.874 324.723 126.874 324.723C126.874 324.723 138.468 323.963 138.142 336.282C137.815 348.6 140.128 368.53 140.128 368.53L149.409 374.214Z" fill="#CCCCCC"/>
<path d="M173.559 389.006L174.815 346.77L187.536 331.746C187.536 331.746 204.536 328.073 204.176 347.337C203.815 366.6 209.315 411.1 209.315 411.1L196.884 403.293C196.884 403.293 193.815 355.6 184.815 350.6C175.815 345.6 178.815 349.6 178.815 349.6L173.559 389.006Z" fill="#CCCCCC"/>
<path d="M160.311 280.732L150.456 275.1H151.532C153.069 275.1 154.315 273.854 154.315 272.317V247.884C154.315 246.347 153.069 245.1 151.532 245.1H141.099C139.561 245.1 138.315 246.347 138.315 247.884V272.317C138.315 273.854 139.561 275.1 141.099 275.1H146.425L159.319 282.469L160.311 280.732Z" fill="#3F3D56"/>
<path d="M173.627 317.342L165.938 315.131C164.081 314.597 162.142 315.67 161.607 317.528C161.073 319.385 162.146 321.324 164.004 321.859L171.692 324.07C173.55 324.604 175.489 323.531 176.023 321.673C176.557 319.815 175.485 317.876 173.627 317.342Z" fill="#3F3D56"/>
<path d="M486.844 246.35L453.97 244.931C452.039 244.848 450.406 246.346 450.322 248.277C450.239 250.208 451.737 251.841 453.668 251.925L486.542 253.344C488.474 253.427 490.107 251.929 490.19 249.998C490.273 248.067 488.776 246.434 486.844 246.35Z" fill="#3F3D56"/>
<path d="M517.844 312.35L484.97 310.931C483.039 310.848 481.406 312.346 481.322 314.277C481.239 316.208 482.737 317.841 484.668 317.925L517.542 319.344C519.474 319.427 521.107 317.929 521.19 315.998C521.274 314.067 519.776 312.434 517.844 312.35Z" fill="#3F3D56"/>
<path d="M383.815 388.6C425.789 388.6 459.815 354.574 459.815 312.6C459.815 270.627 425.789 236.6 383.815 236.6C341.842 236.6 307.815 270.627 307.815 312.6C307.815 354.574 341.842 388.6 383.815 388.6Z" fill="#3F3D56"/>
<path d="M383.815 357.6C408.668 357.6 428.815 337.453 428.815 312.6C428.815 287.748 408.668 267.6 383.815 267.6C358.963 267.6 338.815 287.748 338.815 312.6C338.815 337.453 358.963 357.6 383.815 357.6Z" fill="#E6E6E6"/>
<path d="M484.507 161.667C484.889 166.104 487.488 169.502 490.312 169.258C493.135 169.014 495.113 165.221 494.73 160.783C494.601 159.008 494.049 157.29 493.12 155.772L491.262 136.996L482.469 138.055L485.234 156.453C484.579 158.108 484.329 159.896 484.507 161.667Z" fill="#FFB6B6"/>
<path d="M459.059 52.9746C459.059 52.9746 468.76 50.2419 472.49 54.8687C476.219 59.4955 490.129 104.932 490.129 104.932L494.448 153.834L480.676 149.666L475.315 111.1L466.315 91.1005L459.059 52.9746Z" fill="#6C63FF"/>
<path d="M455.891 23.5579H426.323V51.5964H455.891V23.5579Z" fill="#2F2E41"/>
<path d="M440.795 37.8429C448.757 37.8429 455.211 31.3883 455.211 23.4262C455.211 15.4641 448.757 9.00952 440.795 9.00952C432.832 9.00952 426.378 15.4641 426.378 23.4262C426.378 31.3883 432.832 37.8429 440.795 37.8429Z" fill="#FFB6B6"/>
<path d="M433.97 0.107427C424.756 1.53357 425.195 4.95737 422.245 6.73473C417.047 9.86605 414.996 18.9084 417.741 24.8753C418.475 26.4696 420.021 28.6445 419.271 30.9928C418.695 32.7955 417.034 33.8589 416.722 34.0515C414.169 35.6278 415.836 33.7526 414.683 35.0711C413.409 36.5265 415.382 38.5823 414.173 41.1886C413.101 43.4993 410.891 43.3042 410.604 44.7572C410.11 47.2592 415.783 52.2899 421.82 51.8943C427.195 51.5421 431.188 46.9977 432.525 42.718C433.421 39.8512 433.807 34.92 431.506 32.5222C431.183 32.1859 430.301 31.3715 429.467 29.9732C428.807 28.8667 427.938 27.4101 428.447 26.4047C428.989 25.3335 430.527 25.8973 431.506 24.8753C432.834 23.4893 431.256 21.1476 431.506 18.7578C431.929 14.711 437.663 9.84393 443.741 10.6011C450.636 11.46 453.165 18.958 453.427 19.7773C453.969 21.4756 453.958 23.1186 453.937 26.4046C453.906 31.1203 453.886 34.076 452.407 37.1103C450.28 41.4745 447.57 41.003 446.8 44.2474C445.598 49.3058 451.251 54.3862 451.897 54.953C456.691 59.1553 463.931 60.4188 465.152 58.5216C466.252 56.8118 461.423 54.1523 461.584 48.8355C461.722 44.228 465.451 42.8235 464.642 39.6592C463.752 36.1761 459.002 36.9707 456.995 33.0319C455.122 29.3555 458.574 27.3157 458.015 19.7773C457.897 18.1827 457.396 13.606 454.446 9.07171C453.147 7.07411 451.826 5.04247 449.349 3.97379C446.576 2.77741 438.844 -0.646933 433.97 0.107427Z" fill="#2F2E41"/>
<path d="M427.853 12.8522C428.227 16.0091 432.967 17.5561 434.99 17.9501C435.847 18.117 438.741 18.681 441.617 17.4404C442.68 16.9818 443.067 16.5671 444.166 16.4208C445.654 16.2228 446.403 16.7886 448.754 17.4404C451.369 18.1652 452.676 18.5276 453.342 17.9501C454.432 17.0062 453.595 13.9183 452.323 11.8326C449.971 7.97615 445.665 6.78195 443.656 6.22492C441.362 5.58855 436.706 4.29714 432.441 6.73471C431.871 7.06061 427.473 9.64487 427.853 12.8522Z" fill="#2F2E41"/>
<path d="M498.028 296.498L505.387 296.672L509.488 263.615L498.629 263.358L498.028 296.498Z" fill="#FFB6B6"/>
<path d="M523.273 311.85C523.273 313.093 522.391 314.1 521.303 314.1H506.698C506.698 314.1 505.26 308.323 499.4 305.837L498.996 314.1H491.461L492.374 300.813C492.374 300.813 490.359 293.703 494.545 290.069C498.73 286.435 495.34 286.941 495.34 286.941L496.987 278.717L508.372 280.056L508.456 292.966L513.981 305.781L522.085 309.784C522.806 310.14 523.273 310.952 523.273 311.85Z" fill="#2F2E41"/>
<path d="M464.574 231.751L471.77 230.202L468.041 197.1L457.422 199.386L464.574 231.751Z" fill="#FFB6B6"/>
<path d="M492.705 240.785C492.995 241.994 492.373 243.179 491.315 243.433L477.113 246.843C477.113 246.843 474.367 241.561 468.088 240.511L469.624 248.641L462.298 250.4L460.083 237.266C460.083 237.266 456.464 230.824 459.686 226.313C462.908 221.802 459.729 223.086 459.729 223.086L459.41 214.704L470.793 213.348L473.889 225.882L482.253 237.053L491.067 239.053C491.852 239.232 492.496 239.912 492.705 240.785Z" fill="#2F2E41"/>
<path d="M450.816 39.6005L432.816 40.6005L427.816 50.6005L408.816 60.6005L411.816 109.911L404.96 134.714L405.816 141.6L472.816 139.6L468.816 65.6005L469.816 53.6005L456.816 49.6005L450.816 39.6005Z" fill="#6C63FF"/>
<path d="M406.315 132.1C406.315 132.1 391.315 158.604 406.315 162.352C412.988 164.02 420.057 165.143 425.848 165.877C432.783 166.755 439.166 161.995 440.315 155.1L456.315 210.1L472.315 206.1L475.315 177.471L494.756 196.911L492.315 275.1L510.315 274.1L529.315 189.1C529.315 189.1 530.315 183.1 515.315 175.1C500.315 167.1 473.315 141.1 473.315 141.1L427.315 127.1L406.315 132.1Z" fill="#2F2E41"/>
<path d="M437.815 149.6L411.815 132.6L443.815 98.6005C443.815 98.6005 461.815 91.6005 466.815 118.6C471.815 145.6 474.815 169.6 474.815 169.6L437.815 149.6Z" fill="#2F2E41"/>
<path d="M384.17 98.8486L385.31 91.1005C386.14 85.4538 382.395 80.5258 377.315 79.3127V76.1005C377.315 73.3391 375.077 71.1005 372.315 71.1005C369.554 71.1005 367.315 73.3391 367.315 76.1005V80.3854L348.315 84.4156V79.1005C348.315 76.339 346.077 74.1005 343.315 74.1005C340.554 74.1005 338.315 76.339 338.315 79.1005V84.152L336.427 83.6593C330.786 82.1877 326.33 88.6598 329.838 93.3155C329.883 93.3757 329.929 93.4359 329.976 93.4961C334.66 99.5177 335.998 104.87 335.998 104.87L332.652 122.935L336.463 160.493C336.954 165.333 341.12 168.96 345.982 168.78L382.975 167.41C387.833 167.23 391.723 163.313 391.855 158.453C392.326 141.142 392.381 103.467 384.17 98.8486Z" fill="#3F3D56"/>
<path d="M351.051 163.745C350.532 163.745 350.094 163.345 350.055 162.819L348.047 136.057C348.006 135.506 348.419 135.026 348.97 134.985C349.516 134.942 350 135.356 350.041 135.907L352.049 162.67C352.09 163.221 351.677 163.701 351.126 163.742C351.101 163.744 351.076 163.745 351.051 163.745Z" fill="#FFB6B6"/>
<path d="M335.996 105.87C335.508 105.87 335.081 105.513 335.008 105.015C334.928 104.469 335.306 103.961 335.852 103.881L384.182 96.7982C384.728 96.7191 385.236 97.0961 385.316 97.6424C385.396 98.1888 385.018 98.6966 384.472 98.7767L336.143 105.86C336.093 105.867 336.044 105.87 335.996 105.87Z" fill="#FFB6B6"/>
<path d="M52.0968 395.616C51.7599 395.048 50.3023 395.657 50.0344 395.141C49.7673 394.627 51.1216 393.845 51.8953 392.056C52.0348 391.734 52.914 389.702 52.2631 389.075C51.0294 387.886 45.3836 392.791 43.4079 391.186C42.9743 390.834 42.6714 390.131 41.359 388.989C40.837 388.535 40.5213 388.33 40.2157 388.406C39.7822 388.514 39.7479 389.094 39.283 390.235C38.5859 391.946 38.1735 391.843 37.7674 393.208C37.4658 394.221 37.5347 394.81 37.1799 394.925C36.6778 395.087 36.2156 394.013 35.5793 394.109C34.93 394.207 34.5374 395.458 34.4134 396.395C34.1807 398.154 34.8264 399.314 35.1843 400.534C35.5732 401.86 35.804 403.876 34.9059 406.73L26.0161 431.777C27.9787 426.637 33.6613 412.549 36.0491 407.313C36.7385 405.802 37.4996 404.269 39.0624 403.664C40.567 403.081 42.6334 403.429 45.2678 402.794C45.5754 402.72 46.4292 402.503 46.5367 402.001C46.6255 401.586 46.1233 401.354 46.2005 400.965C46.304 400.443 47.2915 400.437 48.5051 399.835C49.3609 399.411 49.894 398.906 50.3525 398.472C50.4907 398.342 52.5453 396.373 52.0968 395.616Z" fill="#F2F2F2"/>
<path d="M17.1217 408.802C16.7457 408.804 16.6237 409.695 16.2933 409.677C15.9642 409.66 15.9707 408.77 15.3163 407.874C15.1983 407.712 14.4547 406.695 13.9591 406.833C13.0198 407.096 13.7981 411.282 12.4402 411.788C12.1423 411.9 11.7097 411.845 10.7707 412.16C10.3972 412.285 10.2054 412.381 10.1547 412.553C10.0828 412.797 10.3576 412.981 10.7834 413.539C11.422 414.374 11.2523 414.547 11.805 415.14C12.2154 415.581 12.5244 415.717 12.4783 415.924C12.4132 416.217 11.7523 416.134 11.616 416.474C11.4768 416.821 11.9777 417.375 12.4018 417.706C13.1976 418.328 13.9534 418.345 14.6554 418.522C15.4183 418.713 16.4745 419.182 17.6163 420.446L27.3445 432.036C25.3882 429.59 20.1129 422.736 18.2323 420.053C17.6893 419.279 17.1565 418.463 17.3105 417.521C17.4587 416.615 18.2256 415.701 18.6743 414.225C18.7267 414.053 18.8664 413.571 18.6509 413.373C18.4728 413.21 18.2141 413.389 18.0456 413.239C17.8194 413.038 18.1012 412.552 18.1561 411.782C18.1947 411.24 18.1009 410.833 18.0202 410.482C17.9958 410.377 17.6223 408.8 17.1217 408.802Z" fill="#F2F2F2"/>
<path d="M24.6238 410.486L24.3972 408.464L24.5007 408.31C24.9797 407.601 25.2239 406.909 25.2268 406.252C25.2273 406.147 25.2224 406.043 25.2175 405.936C25.198 405.514 25.1736 404.99 25.447 404.379C25.6003 404.038 26.031 403.249 26.6785 403.347C26.8528 403.371 26.9846 403.451 27.0847 403.545L27.1306 403.473C27.3323 403.165 27.4919 403.033 27.6458 402.906C27.7639 402.808 27.886 402.708 28.0774 402.47C28.1614 402.365 28.2268 402.273 28.282 402.196C28.4495 401.963 28.6682 401.684 29.054 401.689C29.4661 401.709 29.6819 402.05 29.825 402.275C30.0803 402.678 30.196 402.968 30.2727 403.16C30.3005 403.23 30.3323 403.309 30.3484 403.334C30.4812 403.529 31.5608 403.347 31.9675 403.28C32.8811 403.128 33.6716 402.996 33.9973 403.572C34.2307 403.984 34.0574 404.529 33.4666 405.235C33.2825 405.455 33.0867 405.622 32.9128 405.753C33.0569 405.839 33.1858 405.971 33.238 406.178C33.3611 406.668 32.9397 407.159 31.9861 407.639C31.7493 407.76 31.4304 407.92 30.9837 407.997C30.7732 408.033 30.5838 408.042 30.4216 408.047C30.4182 408.14 30.3963 408.242 30.3391 408.346C30.1716 408.654 29.823 408.801 29.2976 408.765C28.7195 408.735 28.2434 408.625 27.8235 408.528C27.4568 408.444 27.1409 408.373 26.8928 408.389C26.4329 408.427 26.0784 408.795 25.6624 409.272L24.6238 410.486Z" fill="#F2F2F2"/>
<path d="M25.6746 398.444L23.7758 399.177L23.6012 399.115C22.7939 398.832 22.0623 398.771 21.4258 398.935C21.3246 398.961 21.2248 398.992 21.123 399.024C20.7199 399.15 20.2188 399.307 19.5581 399.197C19.1896 399.135 18.3171 398.919 18.2473 398.268C18.2267 398.093 18.2707 397.945 18.336 397.825L18.2545 397.799C17.9058 397.682 17.7378 397.561 17.5759 397.444C17.4515 397.354 17.3232 397.262 17.0442 397.137C16.9218 397.082 16.8164 397.042 16.7278 397.009C16.4596 396.906 16.1349 396.765 16.0418 396.39C15.9561 395.987 16.231 395.692 16.413 395.496C16.7374 395.147 16.9886 394.961 17.1552 394.839C17.2162 394.794 17.2846 394.743 17.3042 394.721C17.4594 394.543 17.0089 393.545 16.8415 393.169C16.4624 392.324 16.1344 391.592 16.6091 391.131C16.9485 390.801 17.5196 390.83 18.3524 391.223C18.6117 391.345 18.8229 391.492 18.9935 391.627C19.0401 391.466 19.1349 391.308 19.322 391.205C19.7649 390.961 20.347 391.244 21.0536 392.045C21.2299 392.244 21.4657 392.511 21.6536 392.924C21.742 393.118 21.7985 393.299 21.8443 393.455C21.9359 393.434 22.0397 393.43 22.1553 393.459C22.4953 393.543 22.7254 393.843 22.8247 394.36C22.9421 394.927 22.9561 395.415 22.9691 395.846C22.9808 396.222 22.992 396.546 23.071 396.781C23.2236 397.217 23.6696 397.466 24.2371 397.748L25.6746 398.444Z" fill="#F2F2F2"/>
<path d="M24.6238 392.486L24.3972 390.464L24.5007 390.31C24.9797 389.601 25.2239 388.909 25.2268 388.252C25.2273 388.147 25.2224 388.043 25.2175 387.936C25.198 387.514 25.1736 386.99 25.447 386.379C25.6003 386.038 26.031 385.249 26.6785 385.347C26.8528 385.371 26.9846 385.451 27.0847 385.545L27.1306 385.473C27.3323 385.165 27.4919 385.033 27.6458 384.906C27.7639 384.808 27.886 384.708 28.0774 384.47C28.1614 384.365 28.2268 384.273 28.282 384.196C28.4495 383.963 28.6682 383.684 29.054 383.689C29.4661 383.709 29.6819 384.05 29.825 384.275C30.0803 384.678 30.196 384.968 30.2727 385.16C30.3005 385.23 30.3323 385.309 30.3484 385.334C30.4812 385.529 31.5608 385.347 31.9675 385.28C32.8811 385.128 33.6716 384.996 33.9973 385.572C34.2307 385.984 34.0574 386.529 33.4666 387.235C33.2825 387.455 33.0867 387.622 32.9128 387.753C33.0569 387.839 33.1858 387.971 33.238 388.178C33.3611 388.668 32.9397 389.159 31.9861 389.639C31.7493 389.76 31.4304 389.92 30.9837 389.997C30.7732 390.033 30.5838 390.042 30.4216 390.047C30.4182 390.14 30.3963 390.242 30.3391 390.346C30.1716 390.654 29.823 390.801 29.2976 390.765C28.7195 390.735 28.2434 390.625 27.8235 390.528C27.4568 390.444 27.1409 390.373 26.8928 390.389C26.4329 390.427 26.0784 390.795 25.6624 391.272L24.6238 392.486Z" fill="#F2F2F2"/>
<path d="M26.6931 431.744L26.2693 431.478L25.7751 431.535C25.7673 431.489 25.7405 431.384 25.6999 431.219C25.4788 430.314 24.8044 427.562 24.2419 423.228C23.8494 420.203 23.6272 417.093 23.5813 413.982C23.5354 410.867 23.6829 408.509 23.801 406.613C23.8904 405.183 23.9988 403.822 24.1052 402.496C24.3884 398.953 24.6555 395.606 24.4568 391.901C24.4128 391.074 24.3206 389.352 23.3147 387.52C22.7312 386.458 21.9275 385.515 20.9255 384.718L21.5486 383.934C22.6545 384.815 23.5437 385.86 24.1917 387.04C25.3069 389.071 25.4075 390.947 25.4558 391.849C25.658 395.619 25.3879 398.998 25.1018 402.575C24.9963 403.896 24.8879 405.252 24.7991 406.676C24.6819 408.554 24.5359 410.891 24.5813 413.967C24.6262 417.04 24.846 420.112 25.2332 423.099C25.7888 427.379 26.4534 430.09 26.6717 430.98C26.7879 431.456 26.8123 431.556 26.6931 431.744Z" fill="#F2F2F2"/>
<path d="M19.0916 386.307C19.0506 386.307 19.0091 386.306 18.9671 386.303C18.1155 386.257 17.3269 385.747 16.6228 384.788C16.2928 384.337 16.1238 383.822 15.7869 382.796C15.7347 382.638 15.4808 381.835 15.3265 380.73C15.2254 380.009 15.2381 379.707 15.3811 379.44C15.5398 379.143 15.7967 378.936 16.0857 378.797C16.073 378.701 16.0833 378.602 16.1248 378.502C16.2952 378.085 16.7483 378.14 16.9934 378.166C17.1175 378.182 17.2723 378.202 17.4392 378.193C17.7019 378.181 17.8431 378.102 18.0569 377.985C18.2615 377.873 18.5159 377.733 18.8934 377.656C19.6375 377.501 20.261 377.712 20.4666 377.781C21.5481 378.141 22.0813 378.982 22.6985 379.956C22.8216 380.151 23.2439 380.862 23.5227 381.837C23.7239 382.54 23.6956 382.852 23.635 383.085C23.512 383.562 23.2215 383.836 22.4837 384.439C21.7132 385.071 21.3264 385.388 20.9944 385.58C20.2215 386.026 19.7361 386.307 19.0916 386.307Z" fill="#F2F2F2"/>
<path d="M611.308 281.689L611.767 245.955L598.05 242.181L598.465 281.694L595.309 310.892L595.391 310.923C594.068 312.253 592.994 314.377 592.537 316.887C591.703 321.467 593.232 325.582 595.952 326.077C598.671 326.572 601.552 323.261 602.386 318.68C602.728 316.8 602.667 315.003 602.294 313.498L602.416 313.544L611.308 281.689Z" fill="#A0616A"/>
<path d="M586.361 197.69C586.361 197.69 592.586 192.929 596.98 199.887C601.374 206.844 613.458 241.998 613.458 241.998C613.458 241.998 616.953 258.11 616.121 260.49C615.289 262.87 614.191 283.819 614.191 283.819L597.022 280.705L597.437 260.49L581.077 234.376L586.361 197.69Z" fill="#CCCCCC"/>
<path d="M471.376 184.712L495.436 211.136L508.035 204.529L480.757 175.94L463.13 152.45L463.049 152.484C463.108 150.608 462.442 148.324 461.062 146.178C458.545 142.261 454.619 140.298 452.293 141.793C449.968 143.288 450.124 147.675 452.642 151.591C453.675 153.199 454.946 154.47 456.246 155.315L456.126 155.365L471.376 184.712Z" fill="#A0616A"/>
<path d="M548.326 229.059C548.326 229.059 547.027 236.787 539.066 234.703C531.105 232.619 498.276 215.182 498.276 215.182C498.276 215.182 484.723 205.795 483.706 203.487C482.689 201.18 469.19 185.123 469.19 185.123L483.861 175.677L497.359 190.732L527.141 198.645L548.326 229.059Z" fill="#CCCCCC"/>
<path d="M552.885 177.489C563.438 177.489 571.993 168.934 571.993 158.381C571.993 147.828 563.438 139.273 552.885 139.273C542.332 139.273 533.777 147.828 533.777 158.381C533.777 168.934 542.332 177.489 552.885 177.489Z" fill="#A0616A"/>
<path d="M586.404 493.115L574.545 493.114L568.904 447.371L586.407 447.373L586.404 493.115Z" fill="#A0616A"/>
<path d="M545.774 492.846C545.404 493.468 545.209 495.475 545.209 496.199C545.209 498.422 547.011 500.224 549.234 500.224H585.961C587.477 500.224 588.707 498.994 588.707 497.478V495.949C588.707 495.949 590.524 491.353 586.783 485.689C586.783 485.689 582.134 490.124 575.187 483.177L573.139 479.466L558.31 490.311L550.091 491.323C548.293 491.544 546.699 491.289 545.774 492.846Z" fill="#2F2E41"/>
<path d="M552.404 493.115L540.545 493.114L534.904 447.371L552.407 447.373L552.404 493.115Z" fill="#A0616A"/>
<path d="M511.774 492.846C511.404 493.468 511.209 495.475 511.209 496.199C511.209 498.422 513.012 500.224 515.235 500.224H551.961C553.477 500.224 554.707 498.994 554.707 497.478V495.949C554.707 495.949 556.524 491.353 552.783 485.689C552.783 485.689 548.134 490.124 541.187 483.177L539.139 479.466L524.31 490.311L516.091 491.323C514.293 491.544 512.699 491.289 511.774 492.846Z" fill="#2F2E41"/>
<path d="M594.815 294.6L517.815 298.6L534.815 472.6L551.815 471.6L557.815 366.6L560.315 329.1L570.512 468.723L587.815 468.6L594.815 294.6Z" fill="#2F2E41"/>
<path d="M572.005 182.6L542.842 181.6L523.315 201.018V264.628L515.69 304.6C515.69 304.6 566.976 299.6 577.033 309.6C587.089 319.6 605.19 312.6 605.19 312.6L596.139 259.715L592.117 198.6L572.005 182.6Z" fill="#CCCCCC"/>
<path d="M561.296 177.101L545.041 173.26L542.533 163.405C542.533 163.405 542.472 158.759 540.279 158.241C538.086 157.723 534.217 154.494 534.217 154.494L537.965 148.432C537.965 148.432 528.933 147.456 531.644 145.781C534.356 144.106 534.748 144.86 535.133 140.816C535.93 132.447 561.536 133.669 563.525 138.26C563.525 138.26 566.815 139.038 568.49 141.749C570.165 144.46 571.003 145.816 572.099 146.075C573.196 146.334 573.775 148.787 573.775 148.787C573.775 148.787 577.643 152.016 576.287 152.854C574.932 153.691 573.895 158.078 573.895 158.078C573.895 158.078 577.505 162.404 569.431 172.075L565.129 178.995L561.296 177.101Z" fill="#2F2E41"/>
<path d="M582.17 205.202L583.31 197.454C584.14 191.807 580.395 186.879 575.315 185.666V182.454C575.315 179.693 573.077 177.454 570.315 177.454C567.554 177.454 565.315 179.693 565.315 182.454V186.739L546.315 190.769V185.454C546.315 182.693 544.077 180.454 541.315 180.454C538.554 180.454 536.315 182.693 536.315 185.454V190.506L534.427 190.013C528.786 188.541 524.33 195.013 527.838 199.669C527.883 199.729 527.929 199.789 527.976 199.85C532.66 205.871 533.998 211.224 533.998 211.224L530.652 229.288L534.463 266.846C534.954 271.687 539.12 275.314 543.982 275.134L580.975 273.764C585.833 273.584 589.723 269.666 589.855 264.806C590.326 247.496 590.381 209.82 582.17 205.202Z" fill="#3F3D56"/>
<path d="M549.051 270.098C548.532 270.098 548.094 269.698 548.055 269.173L546.047 242.41C546.006 241.859 546.419 241.379 546.97 241.338C547.516 241.295 548 241.71 548.041 242.261L550.049 269.023C550.09 269.574 549.677 270.054 549.126 270.095C549.101 270.097 549.076 270.098 549.051 270.098Z" fill="#FFB6B6"/>
<path d="M533.996 212.224C533.508 212.224 533.081 211.866 533.008 211.369C532.928 210.823 533.306 210.315 533.852 210.235L582.182 203.152C582.728 203.073 583.236 203.45 583.316 203.996C583.396 204.542 583.018 205.05 582.472 205.13L534.143 212.213C534.093 212.221 534.044 212.224 533.996 212.224Z" fill="#FFB6B6"/>
<path d="M536.202 271.699L517.315 226.1L522.315 228.1L542.429 268.502L536.202 271.699Z" fill="#3F3D56"/>
<path d="M654.04 500.164C654.04 500.628 653.664 501.004 653.2 501.004H71V499.324H653.2C653.664 499.324 654.04 499.701 654.04 500.164Z" fill="#E6E6E6"/>
<path d="M447.676 143.671C450.919 146.722 455.122 147.521 457.063 145.457C459.005 143.393 457.949 139.247 454.704 136.195C453.425 134.958 451.868 134.046 450.163 133.534L436.259 120.78L430.413 127.433L444.741 139.3C445.356 140.97 446.362 142.469 447.676 143.671Z" fill="#FFB6B6"/>
<path d="M435.776 77.5923C435.776 77.5923 418.823 56.4735 412.315 58.1004C404.315 60.1004 406.315 68.1005 398.04 89.4966C395.967 94.8551 393.791 100.048 397.974 103.987L409.505 114.848L434.089 135.576L443.979 125.223L424.331 99.8864L435.776 77.5923Z" fill="#6C63FF"/>
</g>
<defs>
<clipPath id="clip0_60_20">
<rect width="654.04" height="501.005" fill="white"/>
</clipPath>
</defs>
</svg>
