<?xml version="1.0" encoding="UTF-8"?>
<svg xmlns="http://www.w3.org/2000/svg" viewBox="0 0 628.12 628.12">
  <g id="OP_brand_blue" data-name="OP brand blue">
    <rect x="16.17" y="13.6" width="596.29" height="596.29" rx="94.13" ry="94.13" style="fill: #0475bc;"/>
  </g>
  <g id="historic_building" data-name="historic building">
    <path d="M535.13,164.9l-213.31-81.97c-6.59-2.48-13.86-2.48-20.45,0L88.04,164.9c-5.68,2.13-9.45,7.56-9.45,13.63v33.59c0,8.05,6.52,14.56,14.56,14.56h436.86c8.05,0,14.56-6.52,14.56-14.56v-33.59c0-6.07-3.77-11.5-9.45-13.63ZM136.84,255.81v145.62h-14.56c-8.05,0-14.56,6.52-14.56,14.56v43.69h407.73v-43.69c0-8.05-6.52-14.56-14.56-14.56h-14.56V255.81h-58.25v145.62h-87.37V255.81h-58.25v145.62h-87.37V255.81h-58.25Zm393.17,232.99H93.16c-8.05,0-14.56,6.52-14.56,14.56v29.12c0,8.05,6.52,14.56,14.56,14.56h436.86c8.05,0,14.56-6.52,14.56-14.56v-29.12c0-8.05-6.52-14.56-14.56-14.56Z" style="fill: #fff;"/>
  </g>
</svg>